<svg width="103" height="16" viewBox="0 0 103 16" fill="none" xmlns="http://www.w3.org/2000/svg">
<path d="M3.46094 12H1.03125L1.04688 10.4453H3.46094C4.16406 10.4453 4.7526 10.2917 5.22656 9.98438C5.70573 9.67708 6.0651 9.23698 6.30469 8.66406C6.54948 8.09115 6.67188 7.40885 6.67188 6.61719V6C6.67188 5.38542 6.60156 4.84115 6.46094 4.36719C6.32552 3.89323 6.1224 3.49479 5.85156 3.17188C5.58594 2.84896 5.25781 2.60417 4.86719 2.4375C4.48177 2.27083 4.03646 2.1875 3.53125 2.1875H0.984375V0.625H3.53125C4.28646 0.625 4.97656 0.752604 5.60156 1.00781C6.22656 1.25781 6.76562 1.61979 7.21875 2.09375C7.67708 2.56771 8.02865 3.13542 8.27344 3.79688C8.51823 4.45833 8.64062 5.19792 8.64062 6.01562V6.61719C8.64062 7.4349 8.51823 8.17448 8.27344 8.83594C8.02865 9.4974 7.67708 10.0651 7.21875 10.5391C6.76042 11.0078 6.21354 11.3698 5.57812 11.625C4.94792 11.875 4.24219 12 3.46094 12ZM2.11719 0.625V12H0.15625V0.625H2.11719ZM14.1484 12.1562C13.5234 12.1562 12.9583 12.0547 12.4531 11.8516C11.9531 11.6432 11.526 11.3542 11.1719 10.9844C10.8229 10.6146 10.5547 10.1797 10.3672 9.67969C10.1797 9.17969 10.0859 8.64062 10.0859 8.0625V7.75C10.0859 7.08854 10.1823 6.48958 10.375 5.95312C10.5677 5.41667 10.8359 4.95833 11.1797 4.57812C11.5234 4.19271 11.9297 3.89844 12.3984 3.69531C12.8672 3.49219 13.375 3.39062 13.9219 3.39062C14.526 3.39062 15.0547 3.49219 15.5078 3.69531C15.9609 3.89844 16.3359 4.1849 16.6328 4.55469C16.9349 4.91927 17.1589 5.35417 17.3047 5.85938C17.4557 6.36458 17.5312 6.92188 17.5312 7.53125V8.33594H11V6.98438H15.6719V6.83594C15.6615 6.4974 15.5938 6.17969 15.4688 5.88281C15.349 5.58594 15.1641 5.34635 14.9141 5.16406C14.6641 4.98177 14.3307 4.89062 13.9141 4.89062C13.6016 4.89062 13.3229 4.95833 13.0781 5.09375C12.8385 5.22396 12.638 5.41406 12.4766 5.66406C12.3151 5.91406 12.1901 6.21615 12.1016 6.57031C12.0182 6.91927 11.9766 7.3125 11.9766 7.75V8.0625C11.9766 8.43229 12.026 8.77604 12.125 9.09375C12.2292 9.40625 12.3802 9.67969 12.5781 9.91406C12.776 10.1484 13.0156 10.3333 13.2969 10.4688C13.5781 10.599 13.8984 10.6641 14.2578 10.6641C14.7109 10.6641 15.1146 10.5729 15.4688 10.3906C15.8229 10.2083 16.1302 9.95052 16.3906 9.61719L17.3828 10.5781C17.2005 10.8438 16.9635 11.099 16.6719 11.3438C16.3802 11.5833 16.0234 11.7786 15.6016 11.9297C15.1849 12.0807 14.7005 12.1562 14.1484 12.1562ZM23.7422 9.71094C23.7422 9.52344 23.6953 9.35417 23.6016 9.20312C23.5078 9.04688 23.3281 8.90625 23.0625 8.78125C22.8021 8.65625 22.4167 8.54167 21.9062 8.4375C21.4583 8.33854 21.0469 8.22135 20.6719 8.08594C20.3021 7.94531 19.9844 7.77604 19.7188 7.57812C19.4531 7.38021 19.2474 7.14583 19.1016 6.875C18.9557 6.60417 18.8828 6.29167 18.8828 5.9375C18.8828 5.59375 18.9583 5.26823 19.1094 4.96094C19.2604 4.65365 19.4766 4.38281 19.7578 4.14844C20.0391 3.91406 20.3802 3.72917 20.7812 3.59375C21.1875 3.45833 21.6406 3.39062 22.1406 3.39062C22.849 3.39062 23.4557 3.51042 23.9609 3.75C24.4714 3.98438 24.862 4.30469 25.1328 4.71094C25.4036 5.11198 25.5391 5.5651 25.5391 6.07031H23.6562C23.6562 5.84635 23.599 5.63802 23.4844 5.44531C23.375 5.2474 23.2083 5.08854 22.9844 4.96875C22.7604 4.84375 22.4792 4.78125 22.1406 4.78125C21.8177 4.78125 21.5495 4.83333 21.3359 4.9375C21.1276 5.03646 20.9714 5.16667 20.8672 5.32812C20.7682 5.48958 20.7188 5.66667 20.7188 5.85938C20.7188 6 20.7448 6.1276 20.7969 6.24219C20.8542 6.35156 20.9479 6.45312 21.0781 6.54688C21.2083 6.63542 21.3854 6.71875 21.6094 6.79688C21.8385 6.875 22.125 6.95052 22.4688 7.02344C23.1146 7.15885 23.6693 7.33333 24.1328 7.54688C24.6016 7.75521 24.9609 8.02604 25.2109 8.35938C25.4609 8.6875 25.5859 9.10417 25.5859 9.60938C25.5859 9.98438 25.5052 10.3281 25.3438 10.6406C25.1875 10.9479 24.9583 11.2161 24.6562 11.4453C24.3542 11.6693 23.9922 11.8438 23.5703 11.9688C23.1536 12.0938 22.6849 12.1562 22.1641 12.1562C21.3984 12.1562 20.75 12.0208 20.2188 11.75C19.6875 11.474 19.2839 11.1224 19.0078 10.6953C18.737 10.263 18.6016 9.8151 18.6016 9.35156H20.4219C20.4427 9.70052 20.5391 9.97917 20.7109 10.1875C20.888 10.3906 21.1068 10.5391 21.3672 10.6328C21.6328 10.7214 21.9062 10.7656 22.1875 10.7656C22.526 10.7656 22.8099 10.7214 23.0391 10.6328C23.2682 10.5391 23.4427 10.4141 23.5625 10.2578C23.6823 10.0964 23.7422 9.91406 23.7422 9.71094ZM29.25 3.54688V12H27.3594V3.54688H29.25ZM27.2344 1.32812C27.2344 1.04167 27.3281 0.804688 27.5156 0.617188C27.7083 0.424479 27.974 0.328125 28.3125 0.328125C28.6458 0.328125 28.9089 0.424479 29.1016 0.617188C29.2943 0.804688 29.3906 1.04167 29.3906 1.32812C29.3906 1.60938 29.2943 1.84375 29.1016 2.03125C28.9089 2.21875 28.6458 2.3125 28.3125 2.3125C27.974 2.3125 27.7083 2.21875 27.5156 2.03125C27.3281 1.84375 27.2344 1.60938 27.2344 1.32812ZM36.7266 3.54688H38.4375V11.7656C38.4375 12.526 38.276 13.1719 37.9531 13.7031C37.6302 14.2344 37.1797 14.638 36.6016 14.9141C36.0234 15.1953 35.3542 15.3359 34.5938 15.3359C34.2708 15.3359 33.9115 15.2891 33.5156 15.1953C33.125 15.1016 32.7448 14.9505 32.375 14.7422C32.0104 14.5391 31.7057 14.2708 31.4609 13.9375L32.3438 12.8281C32.6458 13.1875 32.9792 13.4505 33.3438 13.6172C33.7083 13.7839 34.0911 13.8672 34.4922 13.8672C34.9245 13.8672 35.2917 13.7865 35.5938 13.625C35.901 13.4688 36.138 13.237 36.3047 12.9297C36.4714 12.6224 36.5547 12.2474 36.5547 11.8047V5.46094L36.7266 3.54688ZM30.9844 7.86719V7.70312C30.9844 7.0625 31.0625 6.47917 31.2188 5.95312C31.375 5.42188 31.599 4.96615 31.8906 4.58594C32.1823 4.20052 32.5365 3.90625 32.9531 3.70312C33.3698 3.49479 33.8411 3.39062 34.3672 3.39062C34.9141 3.39062 35.3802 3.48958 35.7656 3.6875C36.1562 3.88542 36.4818 4.16927 36.7422 4.53906C37.0026 4.90365 37.2057 5.34115 37.3516 5.85156C37.5026 6.35677 37.6146 6.91927 37.6875 7.53906V8.0625C37.6198 8.66667 37.5052 9.21875 37.3438 9.71875C37.1823 10.2188 36.9688 10.651 36.7031 11.0156C36.4375 11.3802 36.1094 11.6615 35.7188 11.8594C35.3333 12.0573 34.8776 12.1562 34.3516 12.1562C33.8359 12.1562 33.3698 12.0495 32.9531 11.8359C32.5417 11.6224 32.1875 11.3229 31.8906 10.9375C31.599 10.5521 31.375 10.099 31.2188 9.57812C31.0625 9.05208 30.9844 8.48177 30.9844 7.86719ZM32.8672 7.70312V7.86719C32.8672 8.2526 32.9036 8.61198 32.9766 8.94531C33.0547 9.27865 33.1719 9.57292 33.3281 9.82812C33.4896 10.0781 33.6927 10.276 33.9375 10.4219C34.1875 10.5625 34.4818 10.6328 34.8203 10.6328C35.263 10.6328 35.625 10.5391 35.9062 10.3516C36.1927 10.1641 36.4115 9.91146 36.5625 9.59375C36.7188 9.27083 36.8281 8.91146 36.8906 8.51562V7.10156C36.8594 6.79427 36.7943 6.50781 36.6953 6.24219C36.6016 5.97656 36.474 5.74479 36.3125 5.54688C36.151 5.34375 35.9479 5.1875 35.7031 5.07812C35.4583 4.96354 35.1693 4.90625 34.8359 4.90625C34.4974 4.90625 34.2031 4.97917 33.9531 5.125C33.7031 5.27083 33.4974 5.47135 33.3359 5.72656C33.1797 5.98177 33.0625 6.27865 32.9844 6.61719C32.9062 6.95573 32.8672 7.31771 32.8672 7.70312ZM42.2578 5.35156V12H40.375V3.54688H42.1484L42.2578 5.35156ZM41.9219 7.46094L41.3125 7.45312C41.3177 6.85417 41.401 6.30469 41.5625 5.80469C41.7292 5.30469 41.9583 4.875 42.25 4.51562C42.5469 4.15625 42.901 3.88021 43.3125 3.6875C43.724 3.48958 44.1823 3.39062 44.6875 3.39062C45.0938 3.39062 45.4609 3.44792 45.7891 3.5625C46.1224 3.67188 46.4062 3.85156 46.6406 4.10156C46.8802 4.35156 47.0625 4.67708 47.1875 5.07812C47.3125 5.47396 47.375 5.96094 47.375 6.53906V12H45.4844V6.53125C45.4844 6.125 45.4245 5.80469 45.3047 5.57031C45.1901 5.33073 45.0208 5.16146 44.7969 5.0625C44.5781 4.95833 44.3047 4.90625 43.9766 4.90625C43.6536 4.90625 43.3646 4.97396 43.1094 5.10938C42.8542 5.24479 42.638 5.42969 42.4609 5.66406C42.2891 5.89844 42.1562 6.16927 42.0625 6.47656C41.9688 6.78385 41.9219 7.11198 41.9219 7.46094ZM53.0234 12.1562C52.3984 12.1562 51.8333 12.0547 51.3281 11.8516C50.8281 11.6432 50.401 11.3542 50.0469 10.9844C49.6979 10.6146 49.4297 10.1797 49.2422 9.67969C49.0547 9.17969 48.9609 8.64062 48.9609 8.0625V7.75C48.9609 7.08854 49.0573 6.48958 49.25 5.95312C49.4427 5.41667 49.7109 4.95833 50.0547 4.57812C50.3984 4.19271 50.8047 3.89844 51.2734 3.69531C51.7422 3.49219 52.25 3.39062 52.7969 3.39062C53.401 3.39062 53.9297 3.49219 54.3828 3.69531C54.8359 3.89844 55.2109 4.1849 55.5078 4.55469C55.8099 4.91927 56.0339 5.35417 56.1797 5.85938C56.3307 6.36458 56.4062 6.92188 56.4062 7.53125V8.33594H49.875V6.98438H54.5469V6.83594C54.5365 6.4974 54.4688 6.17969 54.3438 5.88281C54.224 5.58594 54.0391 5.34635 53.7891 5.16406C53.5391 4.98177 53.2057 4.89062 52.7891 4.89062C52.4766 4.89062 52.1979 4.95833 51.9531 5.09375C51.7135 5.22396 51.513 5.41406 51.3516 5.66406C51.1901 5.91406 51.0651 6.21615 50.9766 6.57031C50.8932 6.91927 50.8516 7.3125 50.8516 7.75V8.0625C50.8516 8.43229 50.901 8.77604 51 9.09375C51.1042 9.40625 51.2552 9.67969 51.4531 9.91406C51.651 10.1484 51.8906 10.3333 52.1719 10.4688C52.4531 10.599 52.7734 10.6641 53.1328 10.6641C53.5859 10.6641 53.9896 10.5729 54.3438 10.3906C54.6979 10.2083 55.0052 9.95052 55.2656 9.61719L56.2578 10.5781C56.0755 10.8438 55.8385 11.099 55.5469 11.3438C55.2552 11.5833 54.8984 11.7786 54.4766 11.9297C54.0599 12.0807 53.5755 12.1562 53.0234 12.1562ZM63.0312 10.25V0H64.9219V12H63.2109L63.0312 10.25ZM57.5312 7.86719V7.70312C57.5312 7.0625 57.6068 6.47917 57.7578 5.95312C57.9089 5.42188 58.1276 4.96615 58.4141 4.58594C58.7005 4.20052 59.0495 3.90625 59.4609 3.70312C59.8724 3.49479 60.3359 3.39062 60.8516 3.39062C61.362 3.39062 61.8099 3.48958 62.1953 3.6875C62.5807 3.88542 62.9089 4.16927 63.1797 4.53906C63.4505 4.90365 63.6667 5.34115 63.8281 5.85156C63.9896 6.35677 64.1042 6.91927 64.1719 7.53906V8.0625C64.1042 8.66667 63.9896 9.21875 63.8281 9.71875C63.6667 10.2188 63.4505 10.651 63.1797 11.0156C62.9089 11.3802 62.5781 11.6615 62.1875 11.8594C61.8021 12.0573 61.3516 12.1562 60.8359 12.1562C60.3255 12.1562 59.8646 12.0495 59.4531 11.8359C59.0469 11.6224 58.7005 11.3229 58.4141 10.9375C58.1276 10.5521 57.9089 10.099 57.7578 9.57812C57.6068 9.05208 57.5312 8.48177 57.5312 7.86719ZM59.4141 7.70312V7.86719C59.4141 8.2526 59.4479 8.61198 59.5156 8.94531C59.5885 9.27865 59.7005 9.57292 59.8516 9.82812C60.0026 10.0781 60.1979 10.276 60.4375 10.4219C60.6823 10.5625 60.974 10.6328 61.3125 10.6328C61.7396 10.6328 62.0911 10.5391 62.3672 10.3516C62.6432 10.1641 62.8594 9.91146 63.0156 9.59375C63.1771 9.27083 63.2865 8.91146 63.3438 8.51562V7.10156C63.3125 6.79427 63.2474 6.50781 63.1484 6.24219C63.0547 5.97656 62.9271 5.74479 62.7656 5.54688C62.6042 5.34375 62.4036 5.1875 62.1641 5.07812C61.9297 4.96354 61.651 4.90625 61.3281 4.90625C60.9844 4.90625 60.6927 4.97917 60.4531 5.125C60.2135 5.27083 60.0156 5.47135 59.8594 5.72656C59.7083 5.98177 59.5964 6.27865 59.5234 6.61719C59.4505 6.95573 59.4141 7.31771 59.4141 7.70312ZM70.8828 0H72.7656V10.1953L72.5859 12H70.8828V0ZM78.2812 7.69531V7.85938C78.2812 8.48438 78.2109 9.0599 78.0703 9.58594C77.9349 10.1068 77.7266 10.5599 77.4453 10.9453C77.1693 11.3307 76.8255 11.6302 76.4141 11.8438C76.0078 12.0521 75.5365 12.1562 75 12.1562C74.474 12.1562 74.0156 12.0573 73.625 11.8594C73.2344 11.6615 72.9062 11.3802 72.6406 11.0156C72.3802 10.651 72.1693 10.2161 72.0078 9.71094C71.8464 9.20573 71.7318 8.64844 71.6641 8.03906V7.51562C71.7318 6.90104 71.8464 6.34375 72.0078 5.84375C72.1693 5.33854 72.3802 4.90365 72.6406 4.53906C72.9062 4.16927 73.2318 3.88542 73.6172 3.6875C74.0078 3.48958 74.4635 3.39062 74.9844 3.39062C75.526 3.39062 76.0026 3.49479 76.4141 3.70312C76.8307 3.91146 77.1771 4.20833 77.4531 4.59375C77.7292 4.97396 77.9349 5.42708 78.0703 5.95312C78.2109 6.47917 78.2812 7.0599 78.2812 7.69531ZM76.3984 7.85938V7.69531C76.3984 7.3151 76.3672 6.95833 76.3047 6.625C76.2422 6.28646 76.138 5.98958 75.9922 5.73438C75.8516 5.47917 75.6589 5.27865 75.4141 5.13281C75.1745 4.98177 74.875 4.90625 74.5156 4.90625C74.1823 4.90625 73.8958 4.96354 73.6562 5.07812C73.4167 5.19271 73.2161 5.34896 73.0547 5.54688C72.8932 5.74479 72.7656 5.97396 72.6719 6.23438C72.5833 6.49479 72.5234 6.77604 72.4922 7.07812V8.49219C72.5391 8.88281 72.638 9.24219 72.7891 9.57031C72.9453 9.89323 73.1641 10.1536 73.4453 10.3516C73.7266 10.5443 74.0885 10.6406 74.5312 10.6406C74.8802 10.6406 75.1745 10.5703 75.4141 10.4297C75.6536 10.2891 75.8438 10.0938 75.9844 9.84375C76.1302 9.58854 76.2344 9.29167 76.2969 8.95312C76.3646 8.61458 76.3984 8.25 76.3984 7.85938ZM82.2344 11.0781L84.5312 3.54688H86.5469L83.1562 13.2891C83.0781 13.4974 82.9766 13.724 82.8516 13.9688C82.7266 14.2135 82.5625 14.4453 82.3594 14.6641C82.1615 14.888 81.9141 15.0677 81.6172 15.2031C81.3203 15.3438 80.9609 15.4141 80.5391 15.4141C80.3724 15.4141 80.2109 15.3984 80.0547 15.3672C79.9036 15.3411 79.7604 15.3125 79.625 15.2812L79.6172 13.8438C79.6693 13.849 79.7318 13.8542 79.8047 13.8594C79.8828 13.8646 79.9453 13.8672 79.9922 13.8672C80.3047 13.8672 80.5651 13.8281 80.7734 13.75C80.9818 13.6771 81.151 13.5573 81.2812 13.3906C81.4167 13.224 81.5312 13 81.625 12.7188L82.2344 11.0781ZM80.9375 3.54688L82.9453 9.875L83.2812 11.8594L81.9766 12.1953L78.9062 3.54688H80.9375ZM98.2109 7.33594H99.3828C99.3828 8.15365 99.1484 8.76823 98.6797 9.17969C98.2161 9.58594 97.5833 9.78906 96.7812 9.78906C96.224 9.78906 95.7422 9.66146 95.3359 9.40625C94.9349 9.15104 94.6224 8.79688 94.3984 8.34375C94.1797 7.89062 94.0703 7.36458 94.0703 6.76562V5.85156C94.0703 5.2526 94.1797 4.72656 94.3984 4.27344C94.6224 3.82031 94.9349 3.46615 95.3359 3.21094C95.7422 2.95573 96.224 2.82812 96.7812 2.82812C97.5833 2.82812 98.2188 3.03385 98.6875 3.44531C99.1562 3.85156 99.3906 4.46354 99.3906 5.28125H98.2188C98.2188 4.77083 98.0964 4.40625 97.8516 4.1875C97.612 3.96354 97.2552 3.85156 96.7812 3.85156C96.4427 3.85156 96.1562 3.9375 95.9219 4.10938C95.6927 4.27604 95.5182 4.51042 95.3984 4.8125C95.2839 5.11458 95.2266 5.45833 95.2266 5.84375V6.76562C95.2266 7.15625 95.2839 7.5026 95.3984 7.80469C95.5182 8.10677 95.6927 8.34375 95.9219 8.51562C96.1562 8.68229 96.4427 8.76562 96.7812 8.76562C97.2552 8.76562 97.612 8.65625 97.8516 8.4375C98.0911 8.21875 98.2109 7.85156 98.2109 7.33594ZM92.2578 6.30469C92.2578 6.9974 92.3776 7.64323 92.6172 8.24219C92.8568 8.83594 93.1875 9.35677 93.6094 9.80469C94.0365 10.2474 94.5286 10.5938 95.0859 10.8438C95.6484 11.0885 96.25 11.2109 96.8906 11.2109C97.526 11.2109 98.1224 11.0885 98.6797 10.8438C99.237 10.5938 99.7266 10.2474 100.148 9.80469C100.576 9.35677 100.909 8.83594 101.148 8.24219C101.388 7.64323 101.508 6.9974 101.508 6.30469C101.508 5.61198 101.388 4.96875 101.148 4.375C100.909 3.78125 100.576 3.26302 100.148 2.82031C99.7266 2.3776 99.237 2.03385 98.6797 1.78906C98.1224 1.53906 97.526 1.41406 96.8906 1.41406C96.25 1.41406 95.6484 1.53906 95.0859 1.78906C94.5286 2.03385 94.0365 2.3776 93.6094 2.82031C93.1875 3.26302 92.8568 3.78125 92.6172 4.375C92.3776 4.96875 92.2578 5.61198 92.2578 6.30469ZM91.3438 6.30469C91.3438 5.47656 91.487 4.70833 91.7734 4C92.0599 3.29167 92.4583 2.67448 92.9688 2.14844C93.4792 1.61719 94.0677 1.20573 94.7344 0.914062C95.4062 0.617188 96.125 0.46875 96.8906 0.46875C97.6562 0.46875 98.3724 0.617188 99.0391 0.914062C99.7109 1.20573 100.299 1.61719 100.805 2.14844C101.315 2.67448 101.714 3.29167 102 4C102.286 4.70833 102.43 5.47656 102.43 6.30469C102.43 7.13281 102.286 7.90104 102 8.60938C101.714 9.31771 101.315 9.9401 100.805 10.4766C100.299 11.0078 99.7109 11.4219 99.0391 11.7188C98.3724 12.0156 97.6562 12.1641 96.8906 12.1641C96.125 12.1641 95.4062 12.0156 94.7344 11.7188C94.0677 11.4219 93.4792 11.0078 92.9688 10.4766C92.4583 9.9401 92.0599 9.31771 91.7734 8.60938C91.487 7.90104 91.3438 7.13281 91.3438 6.30469Z" fill="white"/>
</svg>
